<?xml version="1.0" standalone="no"?>
<!DOCTYPE svg PUBLIC "-//W3C//DTD SVG 20010904//EN"
 "http://www.w3.org/TR/2001/REC-SVG-20010904/DTD/svg10.dtd">
<svg version="1.0" xmlns="http://www.w3.org/2000/svg"
 width="16.000000pt" height="16.000000pt" viewBox="0 0 16.000000 16.000000"
 preserveAspectRatio="xMidYMid meet">
<metadata>
Created by potrace 1.11, written by Peter Selinger 2001-2013
</metadata>
<g transform="translate(0.000000,16.000000) scale(0.005333,-0.005333)"
fill="#000000" stroke="none">
<path d="M1417 2860 c-3 -11 -2 -20 2 -20 3 0 12 9 19 20 10 16 10 20 -2 20
-7 0 -16 -9 -19 -20z"/>
<path d="M1520 2865 c0 -8 5 -15 10 -15 6 0 10 7 10 15 0 8 -4 15 -10 15 -5 0
-10 -7 -10 -15z"/>
<path d="M1124 2834 c3 -9 6 -21 6 -27 0 -8 3 -8 10 -1 12 12 3 44 -12 44 -6
0 -7 -7 -4 -16z"/>
<path d="M1603 2804 c-5 -13 -23 -14 -137 -8 -153 9 -141 9 -231 -11 -88 -19
-175 -54 -175 -69 0 -6 -18 -19 -40 -29 -22 -11 -46 -24 -53 -30 -18 -17 -73
-47 -86 -47 -6 0 -11 9 -11 21 0 11 -4 17 -10 14 -13 -8 -13 -45 0 -45 19 0
10 -39 -12 -55 -21 -14 -23 -14 -26 0 -2 8 -7 13 -12 10 -5 -3 -7 -12 -4 -19
3 -7 -12 -31 -32 -52 -21 -22 -37 -45 -35 -51 1 -7 -3 -13 -9 -13 -5 0 -10
-13 -10 -29 0 -16 -11 -53 -24 -82 -22 -48 -31 -85 -40 -154 -2 -11 -6 -30
-10 -42 -4 -13 -5 -27 -1 -33 8 -13 42 9 48 32 8 30 27 20 27 -14 l1 -33 13
31 c8 18 19 35 25 39 9 5 9 10 1 20 -13 15 -4 55 11 55 6 0 7 -6 3 -12 -3 -7
5 1 19 17 14 17 30 30 35 30 17 0 129 120 129 138 0 9 -4 14 -9 11 -5 -3 -6
-9 -3 -13 2 -5 -5 -17 -18 -27 -17 -15 -19 -15 -9 -2 8 9 11 26 8 36 -4 11 0
24 8 31 8 7 13 18 10 24 -5 13 62 87 78 87 5 0 7 4 4 9 -10 15 48 52 104 66
23 5 23 5 5 -6 -30 -18 -31 -19 -15 -29 10 -6 0 -15 -38 -31 -34 -15 -49 -26
-42 -33 6 -6 17 -3 30 9 12 11 34 18 55 17 21 -1 33 3 30 8 -3 6 -1 10 6 10 6
0 9 8 6 19 -7 27 33 41 103 38 48 -2 56 -5 56 -22 0 -21 -12 -38 -36 -48 -14
-6 39 -1 90 9 15 3 1 -9 -35 -30 -33 -20 -54 -36 -47 -36 8 0 10 -5 6 -12 -5
-8 -2 -9 12 -3 10 4 30 10 44 13 23 5 24 4 10 -13 -14 -16 -13 -17 8 -11 16 5
22 3 22 -7 0 -8 -7 -17 -15 -21 -22 -8 -18 -25 5 -19 25 7 25 -5 0 -32 l-20
-21 37 4 c23 3 33 1 29 -6 -3 -5 1 -13 10 -16 10 -4 13 -13 9 -25 -6 -19 -4
-19 42 -4 75 24 107 28 98 13 -6 -10 -4 -12 8 -7 17 6 24 -13 10 -27 -4 -3 -8
-13 -9 -22 -1 -9 11 -3 33 17 31 27 37 29 45 15 5 -9 14 -16 19 -16 6 0 7 4 4
10 -3 6 1 7 10 4 9 -4 14 -12 11 -20 -5 -12 26 -12 62 1 7 3 10 0 7 -5 -3 -6
-2 -10 4 -10 5 0 12 6 15 13 4 6 5 3 2 -9 -3 -17 1 -20 20 -18 13 1 24 -1 24
-5 0 -5 19 -8 43 -8 50 0 97 -12 97 -24 0 -5 6 -9 13 -9 28 0 52 -122 33 -171
-7 -20 -7 -35 1 -51 20 -41 36 -116 31 -148 -3 -16 -1 -30 4 -30 4 0 7 -3 7
-7 -4 -22 3 -25 16 -7 12 16 16 17 24 4 5 -8 7 -18 5 -22 -3 -5 6 -6 20 -2 16
4 26 2 26 -5 0 -6 -5 -11 -11 -11 -5 0 -7 -5 -3 -12 5 -8 2 -9 -9 -5 -10 3
-17 2 -17 -3 0 -6 -10 -10 -22 -10 -13 0 -41 -8 -63 -19 -33 -16 -78 -31 -172
-57 -7 -2 -13 -10 -13 -18 0 -8 -9 -18 -20 -21 -32 -10 -52 -50 -52 -102 -1
-110 22 -270 46 -328 18 -41 10 -67 -37 -117 l-25 -27 25 -23 c14 -13 31 -38
39 -57 17 -40 17 -44 4 -36 -5 3 -10 1 -10 -4 0 -6 -15 -11 -32 -11 -18 0 -39
-4 -47 -9 -16 -10 -6 -31 14 -31 8 0 18 -8 24 -17 8 -14 12 -15 25 -4 13 11
17 11 22 -3 6 -16 8 -16 24 -1 23 21 32 7 24 -35 -5 -25 -11 -31 -25 -27 -11
3 -22 1 -25 -4 -3 -5 -17 -9 -31 -9 -13 0 -38 -9 -54 -20 -25 -19 -35 -20 -81
-11 -65 11 -72 7 -22 -14 l39 -16 -29 -25 c-15 -14 -27 -27 -24 -29 2 -2 32
-8 67 -14 36 -6 68 -14 73 -19 13 -13 -8 -59 -31 -67 -26 -8 -34 -33 -17 -57
8 -11 12 -27 9 -34 -3 -8 -1 -20 5 -27 17 -20 12 -95 -8 -119 -15 -19 -29 -22
-95 -24 -108 -3 -128 -9 -119 -37 4 -12 11 -24 16 -25 5 -2 -1 -12 -13 -22
-23 -21 -18 -40 12 -40 11 0 17 -5 14 -10 -4 -7 -13 -7 -24 0 -16 8 -18 5 -17
-20 1 -35 1 -35 144 -19 114 12 237 39 336 75 101 36 107 42 95 90 -6 24 -7
84 -2 154 8 108 9 115 30 118 21 3 22 -1 22 -55 0 -32 0 -69 1 -83 1 -14 -2
-40 -6 -57 -3 -18 -3 -49 0 -69 l7 -35 57 32 c115 64 209 136 311 237 80 80
101 106 90 113 -8 5 -29 6 -46 3 -20 -4 -33 -2 -33 4 0 15 27 22 59 16 16 -3
38 -1 49 5 56 30 234 374 207 399 -4 4 -9 3 -11 -3 -5 -12 -124 -12 -143 -1
-7 5 -36 10 -64 11 -29 2 -70 8 -92 14 -25 6 -43 6 -51 0 -6 -5 -44 -12 -83
-15 l-71 -6 0 62 c0 59 1 61 22 54 32 -10 528 -8 538 2 14 15 40 207 40 293 0
93 -13 118 -55 107 -14 -4 -25 -2 -25 4 0 5 15 10 34 10 41 0 48 8 40 48 -4
21 -11 29 -20 25 -8 -3 -14 0 -14 6 0 17 -47 13 -76 -5 -24 -16 -26 -16 -45 5
-16 17 -20 30 -14 54 4 18 6 65 5 105 -1 40 4 95 11 121 15 61 5 116 -25 136
-29 19 -240 32 -250 16 -4 -6 -17 -11 -30 -11 -12 0 -27 -5 -34 -12 -8 -8 -12
-8 -12 -1 0 15 -46 23 -59 10 -7 -7 -15 -6 -24 1 -8 7 -17 9 -20 5 -11 -11
-37 19 -37 43 0 12 -4 25 -9 28 -5 3 -11 17 -14 32 -6 33 26 48 63 29 14 -7
37 -11 52 -8 22 4 29 13 40 57 7 28 11 63 10 79 -3 22 1 27 17 27 21 0 28 -18
13 -36 -5 -5 -5 -28 0 -51 7 -32 14 -43 28 -43 10 0 20 -6 22 -12 6 -16 218
-25 218 -10 0 13 -83 127 -123 170 -17 17 -39 32 -49 32 -12 0 -18 8 -18 24 0
29 -115 135 -123 114 -4 -8 -6 -7 -6 4 -1 9 -16 28 -33 42 -27 20 -46 25 -98
26 -103 2 -109 2 -109 -17 -1 -42 -5 -53 -18 -53 -8 0 -12 -4 -9 -9 3 -5 0
-14 -8 -20 -15 -12 -41 4 -111 71 -62 58 -232 161 -310 186 -83 26 -84 26 -92
6z m-598 -274 c-3 -5 -12 -10 -18 -10 -7 0 -6 4 3 10 19 12 23 12 15 0z m1215
-45 c0 -14 7 -28 15 -31 26 -10 18 -53 -10 -60 -28 -7 -27 -6 -19 -28 3 -9 14
-16 24 -16 10 0 23 -7 30 -15 7 -8 16 -13 20 -10 15 9 20 -13 10 -39 -5 -14
-16 -26 -24 -26 -18 0 -56 47 -56 70 0 10 -7 23 -15 30 -9 7 -13 15 -11 18 3
2 -5 13 -18 23 -30 23 -38 55 -20 70 11 9 18 9 26 1 19 -19 28 -14 28 13 0 14
5 25 10 25 6 0 10 -11 10 -25z m98 -56 c-2 -6 -8 -10 -13 -10 -5 0 -11 4 -13
10 -2 6 4 11 13 11 9 0 15 -5 13 -11z m355 -372 c-3 -5 -10 -4 -15 1 -6 6 -7
16 -3 22 6 9 9 9 16 -1 4 -7 5 -17 2 -22z m-293 -85 c0 -21 -18 -42 -36 -42
-18 0 -25 27 -14 55 8 22 13 24 30 15 11 -6 20 -19 20 -28z m50 -62 c0 -5 -5
-10 -11 -10 -5 0 -7 5 -4 10 3 6 8 10 11 10 2 0 4 -4 4 -10z m145 -241 c6 -2
25 1 43 5 18 4 36 6 39 3 5 -6 -78 -47 -94 -47 -19 0 -83 -22 -83 -28 0 -4 38
-6 84 -4 53 2 86 -1 91 -7 3 -6 -2 -14 -12 -18 -10 -3 -25 -12 -34 -20 -14
-12 -19 -12 -32 1 -9 9 -23 13 -31 10 -9 -3 -16 -1 -16 5 0 6 -16 11 -35 11
-28 0 -35 4 -35 20 0 15 -7 20 -27 22 -16 1 -37 3 -48 4 -11 1 -35 2 -52 3
-28 1 -33 5 -33 27 l0 25 133 -5 c73 -2 137 -6 142 -7z m-431 -65 c10 -25 3
-27 -65 -19 -57 7 -61 9 -44 21 27 20 101 18 109 -2z m285 -10 c10 -10 -12
-18 -44 -16 -18 1 -36 -2 -40 -7 -4 -7 -14 -6 -30 1 -27 12 -32 23 -12 32 12
5 119 -3 126 -10z m291 -4 c0 -5 -7 -10 -16 -10 -8 0 -12 5 -9 10 3 6 10 10
16 10 5 0 9 -4 9 -10z m-723 -70 c1 -11 -2 -18 -8 -15 -11 7 -12 35 -1 35 4 0
8 -9 9 -20z m-47 -5 c0 -9 -9 -15 -21 -15 -18 0 -19 2 -9 15 7 8 16 15 21 15
5 0 9 -7 9 -15z m110 -5 c0 -5 -7 -10 -16 -10 -8 0 -12 5 -9 10 3 6 10 10 16
10 5 0 9 -4 9 -10z m50 -5 c0 -8 -7 -15 -15 -15 -8 0 -15 7 -15 15 0 8 7 15
15 15 8 0 15 -7 15 -15z m-107 -32 c15 -2 27 -11 27 -19 0 -10 13 -14 46 -14
38 0 45 -3 42 -17 -2 -10 -13 -19 -26 -21 -12 -2 -22 -7 -22 -12 0 -16 19 -21
39 -10 13 7 22 7 26 0 3 -5 15 -10 25 -10 20 0 40 -27 40 -55 0 -9 -4 -13 -10
-10 -5 3 -10 -1 -10 -9 0 -9 5 -16 10 -16 6 0 10 -9 10 -19 0 -11 4 -22 9 -25
14 -9 6 -167 -12 -213 -8 -22 -13 -43 -11 -46 2 -2 -2 -37 -11 -76 -34 -163
-92 -291 -132 -291 -13 0 -23 -4 -23 -10 0 -19 -21 -10 -29 12 -8 23 19 140
45 192 8 16 11 32 7 35 -15 11 -14 51 2 67 13 14 18 14 32 2 9 -7 14 -8 10 -2
-4 7 0 18 9 25 22 18 10 56 -30 99 -44 46 -55 69 -49 107 3 17 -3 57 -13 90
-28 92 -13 127 50 117 25 -4 28 -3 14 6 -10 6 -18 20 -18 31 0 21 -31 40 -37
22 -2 -5 -21 6 -43 25 -21 20 -37 38 -35 42 5 9 33 10 68 3z m78 -480 c13 -16
12 -17 -3 -4 -17 13 -22 21 -14 21 2 0 10 -8 17 -17z m-281 -297 c0 -3 -13
-11 -30 -20 -16 -8 -30 -13 -30 -11 0 2 -3 10 -6 19 -5 13 1 16 30 16 20 0 36
-2 36 -4z m648 -72 c-10 -10 -23 -14 -37 -9 -34 10 -24 25 16 25 34 0 36 -1
21 -16z"/>
<path d="M2100 1299 c0 -5 5 -7 10 -4 6 3 10 8 10 11 0 2 -4 4 -10 4 -5 0 -10
-5 -10 -11z"/>
<path d="M2010 2780 c-9 -17 -8 -20 8 -20 10 0 23 -5 30 -12 9 -9 12 -9 12 0
0 7 10 12 22 12 27 0 22 5 -25 25 -34 14 -37 14 -47 -5z"/>
<path d="M1922 2779 c-13 -5 -21 -13 -17 -18 7 -12 47 1 53 17 4 14 -4 14 -36
1z"/>
<path d="M1970 2770 c0 -5 5 -10 10 -10 6 0 10 5 10 10 0 6 -4 10 -10 10 -5 0
-10 -4 -10 -10z"/>
<path d="M630 2600 c0 -5 5 -10 11 -10 5 0 7 5 4 10 -3 6 -8 10 -11 10 -2 0
-4 -4 -4 -10z"/>
<path d="M1033 2470 c-35 -14 -27 -22 15 -16 l37 5 -35 -18 c-31 -17 -80 -70
-80 -86 0 -6 56 36 107 79 21 18 21 20 5 32 -20 16 -20 16 -49 4z"/>
<path d="M805 2169 c-4 -6 -5 -12 -2 -15 2 -3 7 2 10 11 7 17 1 20 -8 4z"/>
<path d="M2470 2139 c0 -5 5 -7 10 -4 6 3 10 8 10 11 0 2 -4 4 -10 4 -5 0 -10
-5 -10 -11z"/>
<path d="M2558 2143 c7 -3 16 -2 19 1 4 3 -2 6 -13 5 -11 0 -14 -3 -6 -6z"/>
<path d="M2615 2140 c3 -5 13 -10 21 -10 8 0 14 5 14 10 0 6 -9 10 -21 10 -11
0 -17 -4 -14 -10z"/>
<path d="M220 2099 c0 -5 5 -7 10 -4 6 3 10 8 10 11 0 2 -4 4 -10 4 -5 0 -10
-5 -10 -11z"/>
<path d="M2811 2004 c0 -11 3 -14 6 -6 3 7 2 16 -1 19 -3 4 -6 -2 -5 -13z"/>
<path d="M2838 1929 c-8 -24 11 -190 23 -206 7 -8 21 -18 30 -24 17 -8 18 -6
13 23 -10 57 -45 192 -53 206 -7 12 -9 12 -13 1z"/>
<path d="M365 1790 c-3 -5 1 -10 9 -10 9 0 16 5 16 10 0 6 -4 10 -9 10 -6 0
-13 -4 -16 -10z"/>
<path d="M505 1749 c-9 -14 -2 -20 14 -10 8 6 9 11 3 15 -6 3 -14 1 -17 -5z"/>
<path d="M1423 1703 c-24 -2 -43 -8 -43 -12 0 -12 82 -31 134 -31 50 0 54 4
31 26 -17 17 -61 23 -122 17z"/>
<path d="M1560 1693 c0 -5 4 -14 9 -21 6 -10 10 -9 14 7 3 14 0 21 -9 21 -8 0
-14 -3 -14 -7z"/>
<path d="M185 1606 c-16 -12 -17 -15 -4 -16 23 0 69 -53 70 -81 0 -13 4 -33 8
-44 8 -19 8 -19 19 2 20 38 13 63 -30 109 -40 42 -44 44 -63 30z"/>
<path d="M1367 1606 c-4 -9 -17 -16 -29 -16 -30 0 -148 -41 -148 -52 0 -14 41
-9 58 8 15 15 16 15 23 -2 7 -17 8 -17 8 -1 1 10 9 17 21 17 18 0 25 -16 21
-42 -1 -7 39 -13 62 -9 4 0 7 -3 7 -8 0 -5 23 -12 52 -15 41 -6 53 -4 60 8 5
9 18 16 30 16 20 0 21 1 3 20 -14 15 -15 20 -4 20 8 0 0 13 -19 30 -24 23 -42
30 -71 30 -22 0 -46 3 -54 6 -8 3 -17 -2 -20 -10z m23 -62 c0 -8 -4 -14 -9
-14 -5 0 -16 -3 -25 -6 -13 -5 -13 -2 -3 19 12 25 37 26 37 1z m83 -1 c13 -8
-18 -21 -50 -22 -16 -1 -23 5 -23 17 0 10 3 21 6 25 6 5 45 -6 67 -20z"/>
<path d="M80 1586 c0 -9 8 -12 26 -8 19 3 22 7 12 13 -20 13 -38 11 -38 -5z"/>
<path d="M203 1448 c-25 -32 -23 -49 7 -75 17 -13 30 -33 30 -44 0 -10 6 -18
13 -16 6 1 10 -5 8 -13 -2 -8 -7 -31 -11 -51 -4 -19 -10 -41 -15 -48 -4 -8 4
-6 19 4 23 15 26 24 26 71 0 35 -9 77 -26 119 -27 67 -34 74 -51 53z"/>
<path d="M90 1370 c0 -5 7 -7 15 -4 8 4 15 8 15 10 0 2 -7 4 -15 4 -8 0 -15
-4 -15 -10z"/>
<path d="M94 1315 c4 -16 7 -36 8 -43 1 -7 11 -11 22 -10 27 4 47 29 35 44 -5
6 -7 18 -3 27 4 13 -1 15 -31 14 -35 -2 -36 -3 -31 -32z"/>
<path d="M110 1205 c0 -8 5 -15 10 -15 6 0 10 7 10 15 0 8 -4 15 -10 15 -5 0
-10 -7 -10 -15z"/>
<path d="M1311 1050 c-76 -60 -100 -90 -100 -125 -1 -13 6 -5 18 20 13 26 43
59 90 95 39 29 71 58 71 62 0 11 4 14 -79 -52z"/>
<path d="M250 1070 c-9 -6 -10 -10 -3 -10 6 0 15 5 18 10 8 12 4 12 -15 0z"/>
<path d="M170 1059 c0 -5 5 -7 10 -4 6 3 10 8 10 11 0 2 -4 4 -10 4 -5 0 -10
-5 -10 -11z"/>
<path d="M690 1020 c0 -5 5 -10 11 -10 5 0 7 5 4 10 -3 6 -8 10 -11 10 -2 0
-4 -4 -4 -10z"/>
<path d="M752 969 c-9 -24 -8 -32 10 -81 8 -22 6 -36 -7 -64 -13 -27 -14 -42
-7 -58 10 -19 11 -18 11 12 1 17 6 32 12 32 8 0 10 25 6 86 -6 94 -12 110 -25
73z"/>
<path d="M265 870 c-4 -11 -11 -17 -17 -14 -5 4 -4 -4 3 -17 l12 -24 10 23 c6
12 17 22 25 22 12 0 12 3 2 15 -17 20 -27 19 -35 -5z"/>
<path d="M1222 870 c0 -14 2 -19 5 -12 2 6 2 18 0 25 -3 6 -5 1 -5 -13z"/>
<path d="M1350 870 c9 -17 40 -40 53 -40 2 0 4 14 4 30 0 27 -3 30 -34 30 -30
0 -33 -2 -23 -20z"/>
<path d="M566 854 c-10 -26 -7 -44 8 -38 7 3 14 16 14 30 0 27 -13 32 -22 8z"/>
<path d="M654 835 c-9 -35 0 -50 30 -53 28 -2 34 15 16 47 -16 31 -39 33 -46
6z"/>
<path d="M447 821 c5 -20 31 -36 41 -26 5 5 -32 45 -42 45 -2 0 -2 -9 1 -19z"/>
<path d="M1527 793 c-19 -19 10 -33 76 -37 25 -1 34 1 27 8 -6 6 -25 11 -42
12 -18 1 -34 7 -36 13 -4 12 -15 14 -25 4z"/>
<path d="M670 754 c0 -8 5 -12 10 -9 6 3 10 10 10 16 0 5 -4 9 -10 9 -5 0 -10
-7 -10 -16z"/>
<path d="M752 711 c-16 -10 -12 -43 6 -49 8 -2 12 7 12 27 0 34 0 34 -18 22z"/>
<path d="M647 683 c-3 -5 7 -14 24 -20 23 -9 29 -9 29 3 0 8 -4 14 -9 14 -5 0
-16 3 -24 6 -8 3 -17 1 -20 -3z"/>
<path d="M1745 580 c-3 -5 -1 -10 4 -10 6 0 11 5 11 10 0 6 -2 10 -4 10 -3 0
-8 -4 -11 -10z"/>
<path d="M500 570 c0 -5 5 -10 10 -10 6 0 10 5 10 10 0 6 -4 10 -10 10 -5 0
-10 -4 -10 -10z"/>
<path d="M635 570 c-3 -5 1 -10 10 -10 9 0 13 5 10 10 -3 6 -8 10 -10 10 -2 0
-7 -4 -10 -10z"/>
<path d="M695 539 c-11 -17 1 -21 15 -4 8 9 8 15 2 15 -6 0 -14 -5 -17 -11z"/>
<path d="M550 515 c0 -16 16 -20 24 -6 3 5 -1 11 -9 15 -9 3 -15 0 -15 -9z"/>
<path d="M631 488 l-24 -42 34 28 c34 29 42 47 24 53 -5 1 -21 -16 -34 -39z"/>
<path d="M726 495 c-22 -51 -33 -150 -17 -159 7 -5 11 4 11 24 0 18 7 59 16
92 19 73 13 97 -10 43z"/>
<path d="M1495 210 c3 -5 10 -10 16 -10 5 0 9 5 9 10 0 6 -7 10 -16 10 -8 0
-12 -4 -9 -10z"/>
</g>
</svg>
